# xmcd
#
# Track frame offsets:
#	150
#	16283
#	26924
#	43255
#	58229
#	73389
#	87117
#	102873
#	116634
#	130269
#	142729
#
# Disc length: 2089 seconds
#
# Revision: 1
# Processed by: cddbd v1.5.1PL0 Copyright (c) Steve Scherf et al.
# Submitted via: EasyCDDAExtractor 7.0.9.1
#
DISCID=9d08270b
DTITLE=Various Artist - HILLCREST 24
DYEAR=2005
DGENRE=Country
TTITLE0=Kiera Lee - I Thinking I'm In Love
TTITLE1=Micheal Fix - Breakup Breakdown
TTITLE2=Roy Rivers - What Our Love Is Not About
TTITLE3=Danny Mack - Fit To Kill And Going Out In Style
TTITLE4=John Carter - Too Late Now
TTITLE5=Ann Pascoe - On The Menu
TTITLE6=Mike Lee - Texas Tea
TTITLE7=Mandy Strobel - That's What You Do With The Blues
TTITLE8=Debbie Bergeron - Love's Fallin' Behind
TTITLE9=Mike Miles - Wrong Me Right
TTITLE10=Nick Cesta - Past The Future
EXTD=
EXTT0=
EXTT1=
EXTT2=
EXTT3=
EXTT4=
EXTT5=
EXTT6=
EXTT7=
EXTT8=
EXTT9=
EXTT10=
PLAYORDER=
